<svg width="26" height="26" viewBox="0 0 26 26" fill="none" xmlns="http://www.w3.org/2000/svg">
<mask id="mask0" mask-type="alpha" maskUnits="userSpaceOnUse" x="0" y="0" width="26" height="26">
<rect width="26" height="26" fill="#C4C4C4"/>
</mask>
<g mask="url(#mask0)">
<circle r="12.8988" transform="matrix(0.707107 0.707107 0.707107 -0.707107 13.0806 13.1611)" fill="#12B2DD"/>
<path d="M18.7638 7.59546L17.0824 5.9141C16.9623 5.79399 16.8073 5.71483 16.6395 5.68789C16.4718 5.66095 16.2998 5.6876 16.148 5.76404C16.1349 5.75961 16.1209 5.75893 16.1074 5.76207C16.094 5.76521 16.0816 5.77205 16.0719 5.78182L15.9398 5.91385L7.96704 13.8865L7.06388 14.7904C7.05297 14.8014 7.04578 14.8155 7.04332 14.8308L7.03342 14.8208L6 18.6777L9.8569 17.6443L9.847 17.6344C9.86228 17.6319 9.8764 17.6247 9.88737 17.6138L18.8961 8.60525C18.9059 8.59547 18.9127 8.58315 18.9159 8.56969C18.919 8.55623 18.9183 8.54216 18.9139 8.52907C18.9902 8.37743 19.0167 8.20561 18.9898 8.03801C18.9628 7.87042 18.8838 7.71557 18.7638 7.59546Z" fill="#211C49"/>
</g>
</svg>
