<svg width="169" height="32" viewBox="0 0 169 32" fill="none" xmlns="http://www.w3.org/2000/svg">
<path d="M60.9478 25.1239L68.0088 25.0492L78.0295 15.0284V24.9445H83.3103V19.8363L88.3098 24.8372L95.2241 24.7652L83.3103 12.8501V0L78.0295 0V8.04216L60.9478 25.1239Z" fill="white"/>
<path d="M14.3702 21.975L11.8124 17.7663C13.7423 17.0222 14.7654 15.6968 14.7654 13.7668C14.7654 10.4882 11.8821 9 6.65026 9L0 9C0 9 0 9.37204 0 9.65107C1.79046 9.65107 2.18575 10.8602 2.18575 12.3251L2.18575 21.975C2.18575 23.4399 1.79046 24.6491 0 24.6491C0 24.9281 0 25.2769 0 25.2769H8.32446C8.32446 25.2769 8.32446 24.9281 8.32446 24.6491C6.534 24.6491 6.13871 23.4399 6.13871 21.975V18.5103H6.65026C7.16182 18.5103 7.65013 18.5103 8.09193 18.4871C8.71975 19.6962 10.4172 22.9981 10.859 23.8352C11.3938 24.8816 12.1844 25.2769 13.3703 25.2769C13.44 25.2769 17.8813 25.2769 17.8813 25.2769C17.8813 25.2769 17.8813 25.1374 17.8813 24.6491C16.1141 24.6491 15.2072 23.3236 14.3702 21.975ZM6.55725 17.6035H6.13871L6.13871 9.93011H6.55725C9.30107 9.93011 10.5567 11.2555 10.5567 13.7668C10.5567 16.2781 9.30107 17.6035 6.55725 17.6035Z" fill="#12B2DD"/>
<path d="M28.2006 21.6262C26.1544 23.8352 21.6666 23.4632 21.1085 20.4636L28.2936 19.2544C28.4099 16.1851 26.3171 14.5109 23.2013 14.5109C19.7134 14.5109 16.8998 16.6966 17.2253 20.4403C17.4579 23.2306 19.7831 25.4861 23.2943 25.4861C26.1544 25.4861 27.8285 23.6957 28.5959 21.9517C28.5959 21.9285 28.2006 21.6262 28.2006 21.6262ZM22.7827 15.348C24.3871 15.2085 24.8987 16.6734 24.7824 18.9056L20.969 19.5567C20.69 17.3477 21.3178 15.4875 22.7827 15.348Z" fill="#12B2DD"/>
<path d="M42.257 24.0677C41.7222 24.3235 41.2106 24.3003 40.9549 23.998C40.7223 23.6957 40.5828 22.7656 40.4433 21.9517C40.4433 21.9517 40.327 21.0216 40.0015 18.6731C39.5829 15.7433 38.0483 14.5109 34.3278 14.5109C33.0024 14.5109 30.9795 14.8829 30.4214 16.3943C30.0959 17.2082 30.3516 17.8593 30.9562 18.1616C31.6073 18.4638 32.5606 18.3941 33.1187 17.3942C32.2119 16.6501 32.8862 15.2085 34.3511 15.3247C35.5137 15.3247 35.9323 16.5571 36.1416 17.743C36.3973 19.3474 35.0487 18.8824 32.8629 19.3242C30.1191 19.8823 29.2588 21.4634 29.5843 23.1609C29.9098 24.8583 31.7235 25.4861 33.6535 25.4861C34.8162 25.4861 36.1183 25.2071 36.9321 23.9515C37.2809 25.0676 38.7459 25.4861 40.0015 25.4861C41.3036 25.4861 42.0245 25.0676 42.443 24.5793C42.3733 24.3468 42.35 24.3235 42.257 24.0677ZM35.3045 24.0445C34.4441 24.277 33.3977 23.6259 33.235 22.5563C33.0722 21.3704 33.7698 20.5101 34.7696 20.2078C35.9555 19.8823 36.2113 19.766 36.3973 19.3939C36.4903 19.9753 36.5834 20.8356 36.6531 21.6727C36.7229 22.7888 36.4206 23.7887 35.3045 24.0445Z" fill="#12B2DD"/>
<path d="M53.2704 21.6262C52.3171 22.6493 50.9917 23.1841 49.4337 23.0214C47.3642 22.8121 46.0156 21.5797 45.8761 18.9289C45.7831 16.8129 46.6434 15.4642 47.8525 15.348C49.8523 15.1852 50.2941 17.464 49.0617 18.4638C49.922 19.6497 51.1312 19.9288 51.9915 19.5102C52.8286 19.1149 53.1309 18.1383 52.9914 17.2314C52.8054 15.906 51.666 14.5109 48.2478 14.5109C44.7599 14.5109 41.9464 16.7896 42.2719 20.5333C42.5044 23.3236 44.8529 25.4861 48.3409 25.4861C51.2009 25.4861 52.8751 23.6957 53.6425 21.9517C53.6425 21.9285 53.2704 21.6262 53.2704 21.6262Z" fill="#12B2DD"/>
<path d="M61.8501 22.6958C61.5013 23.2771 61.013 23.5562 60.4084 23.4632C59.8504 23.3469 59.4551 23.0446 59.4551 21.9517V15.6503H61.9199V14.7434H59.4551V10.8137C59.4551 10.8137 59.1295 10.8137 58.7343 10.8137C58.2459 13.325 56.1765 14.6271 53.8744 14.7434C53.8744 15.0224 53.8744 15.6503 53.8744 15.6503H55.6882C55.6882 16.3711 55.6882 21.7657 55.6882 21.7657C55.6882 24.2538 57.1996 25.4861 59.0598 25.4861C60.7805 25.4861 61.6873 24.37 62.2919 22.9284L61.8501 22.6958Z" fill="#12B2DD"/>
<path d="M107.903 25.2769C107.903 25.2769 107.903 25.1141 107.903 24.6258C106.135 24.6258 105.856 23.4399 105.159 21.9517L99.5316 9H98.4387L93.3464 21.9517C92.7883 23.3702 92.1838 24.6258 90.4166 24.6258C90.4166 24.9048 90.4166 25.2769 90.4166 25.2769H96.1367C96.1367 25.2769 96.1367 25.1141 96.1367 24.6258C94.3695 24.6258 93.6719 23.8585 94.3463 21.9517C94.6253 21.2309 94.8578 20.6496 94.8578 20.6496H100.508L101.09 21.9517C101.81 23.7887 101.648 24.6258 99.8804 24.6258C99.8804 24.9048 99.8804 25.2769 99.8804 25.2769H107.903ZM95.2299 19.7195L97.5319 13.8598L100.113 19.7195H95.2299Z" fill="#12B2DD"/>
<path d="M121.347 23.5329C121.114 23.9282 120.812 24.1375 120.417 24.0212C119.859 23.8585 119.836 23.0679 119.836 21.9517V14.5109C119.836 14.5109 119.603 14.5109 119.208 14.5109C117.789 15.7433 115.697 16.3246 114.348 16.3246C114.348 16.5804 114.348 16.6734 114.348 16.9524C116.115 16.9524 116.069 18.1616 116.069 19.6265V20.8356C116.069 22.3703 115.604 23.6027 114.185 23.6027C112.604 23.6027 112.209 22.3703 112.209 20.9984V14.5109C112.209 14.5109 111.976 14.5109 111.581 14.5109C110.186 15.7433 108.093 16.3246 106.744 16.3246C106.744 16.5804 106.744 16.6734 106.744 16.9524C108.512 16.9524 108.465 18.1616 108.465 19.6265V21.3704C108.488 24.277 110.162 25.4861 112.488 25.4861C114.371 25.4861 115.487 24.6258 116.162 23.6259C116.464 24.9281 117.51 25.4861 119.068 25.4861C120.37 25.4861 121.184 24.9513 121.742 23.7654L121.347 23.5329Z" fill="#12B2DD"/>
<path d="M128.258 24.37C127.235 24.37 125.05 24.4165 125.003 23.5794C124.957 23.2074 125.212 22.9284 125.491 22.7191C126.189 23.0214 127.026 23.1841 127.91 23.1841C130.886 23.1841 133.025 21.4402 133.025 18.8359C133.025 17.0454 132.002 15.6735 130.398 14.9759C130.351 14.3946 130.63 13.9528 131.305 13.9761C132.049 13.9761 132.281 14.6969 132.328 15.348C132.956 15.3712 133.932 14.8597 134.002 13.7435C134.072 12.6507 133.235 11.7671 131.932 11.9066C130.421 12.0926 129.886 13.325 129.77 14.7667C129.189 14.6039 128.584 14.5109 127.91 14.5109C124.933 14.5109 122.794 16.2548 122.794 18.8359C122.794 20.3241 123.515 21.5332 124.678 22.3005C123.817 22.6028 122.631 23.1841 122.376 24.5328C122.166 25.7419 122.887 26.579 123.84 26.9976C122.957 27.2999 122.213 27.7882 122.213 28.7415C122.213 30.7645 125.352 31.2063 127.747 31.2063C130.142 31.2063 133.839 30.1599 134.025 27.1603C134.234 23.8352 130.235 24.37 128.258 24.37ZM127.235 15.5107C128.305 15.348 129.282 16.3478 129.7 18.5336C130.095 20.7426 129.723 21.9982 128.584 22.1843C127.445 22.3703 126.538 21.3472 126.119 19.1382C125.724 16.9524 126.142 15.6735 127.235 15.5107ZM128.258 30.439C125.91 30.4855 124.817 29.6251 124.887 28.4625C124.933 27.9742 125.119 27.6254 125.398 27.3696C126.863 27.4859 129.328 27.6021 129.956 27.6021C130.654 27.6021 130.956 27.8812 130.956 28.3695C130.956 29.2066 130.56 30.3692 128.258 30.439Z" fill="#12B2DD"/>
<path d="M148.187 23.5329C147.955 23.9282 147.653 24.1375 147.257 24.0212C146.699 23.8585 146.676 23.0679 146.676 21.9517V14.5109C146.676 14.5109 146.444 14.5109 146.048 14.5109C144.63 15.7433 142.537 16.3246 141.188 16.3246C141.188 16.5804 141.188 16.6734 141.188 16.9524C142.956 16.9524 142.909 18.1616 142.909 19.6265V20.8356C142.909 22.3703 142.444 23.6027 141.026 23.6027C139.444 23.6027 139.049 22.3703 139.049 20.9984V14.5109C139.049 14.5109 138.817 14.5109 138.421 14.5109C137.026 15.7433 134.933 16.3246 133.585 16.3246C133.585 16.5804 133.585 16.6734 133.585 16.9524C135.352 16.9524 135.305 18.1616 135.305 19.6265V21.3704C135.329 24.277 137.003 25.4861 139.328 25.4861C141.212 25.4861 142.328 24.6258 143.002 23.6259C143.304 24.9281 144.351 25.4861 145.909 25.4861C147.211 25.4861 148.025 24.9513 148.583 23.7654L148.187 23.5329Z" fill="#12B2DD"/>
<path d="M156.233 18.3941C154.628 17.5105 153.605 17.0919 153.722 16.1851C153.791 15.534 154.373 15.255 155.187 15.3712C156.396 15.5107 156.93 16.2316 157.326 18.115H157.884L157.651 14.5109C157.651 14.5109 157.396 14.5109 157.256 14.5109C157.047 15.3945 156.698 14.6969 155.187 14.5109C153.14 14.2784 150.838 14.7899 150.559 17.0454C150.303 19.2777 152.396 20.3008 153.931 21.0914C155.559 21.9285 156.605 22.3005 156.442 23.5097C156.349 24.2538 155.349 24.7188 154.094 24.6491C153.164 24.5793 152.094 24.3003 151.954 23.6724C151.815 22.9749 152.28 22.4866 152.954 22.5331C152.931 21.6029 152.443 20.7426 151.257 20.5798C149.838 20.3706 148.769 21.6727 149.118 23.0911C149.49 24.6258 152.094 25.3931 154.024 25.4861C156.396 25.6257 159.349 25.0676 159.814 22.7888C160.349 20.1845 157.861 19.3009 156.233 18.3941Z" fill="#12B2DD"/>
<path d="M167.668 22.6958C167.319 23.2771 166.831 23.5562 166.226 23.4632C165.668 23.3469 165.273 23.0446 165.273 21.9517V15.6503H167.738V14.7434H165.273V10.8137C165.273 10.8137 164.947 10.8137 164.552 10.8137C164.064 13.325 161.994 14.6271 159.692 14.7434C159.692 15.0224 159.692 15.6503 159.692 15.6503H161.506C161.506 16.3711 161.506 21.7657 161.506 21.7657C161.506 24.2538 163.017 25.4861 164.878 25.4861C166.598 25.4861 167.505 24.37 168.11 22.9284L167.668 22.6958Z" fill="#12B2DD"/>
</svg>
